<svg width="84" height="84" viewBox="0 0 84 84" fill="none" xmlns="http://www.w3.org/2000/svg">
  <rect width="84" height="84" rx="26" fill="#198F67"/>
  <rect x="12.8" y="7.8" width="15.2" height="5.6" rx="2.8" fill="#F4F7FB"/>
  <rect x="11.8" y="15.4" width="15.2" height="5.6" rx="2.8" fill="#F4F7FB"/>
  <path d="M22.3 18L27.6 51.5H60.1L64.4 24.3H28.8" stroke="#F4F7FB" stroke-width="4.6" stroke-linecap="round" stroke-linejoin="round"/>
  <circle cx="28" cy="61.8" r="4.9" fill="#F4F7FB"/>
  <circle cx="55.6" cy="61.8" r="4.9" fill="#F4F7FB"/>
  <rect x="36.4" y="30.9" width="24.9" height="16.7" rx="3.6" fill="#08111F"/>
  <circle cx="40.9" cy="35.8" r="1.3" fill="#8AE0C2"/>
  <rect x="44.2" y="34.6" width="12.2" height="2.5" rx="1.2" fill="#F4F7FB"/>
  <circle cx="40.9" cy="39.4" r="1.3" fill="#8AE0C2"/>
  <rect x="44.2" y="38.2" width="10.2" height="2.5" rx="1.2" fill="#F4F7FB"/>
  <circle cx="40.9" cy="43" r="1.3" fill="#8AE0C2"/>
  <rect x="44.2" y="41.8" width="13.6" height="2.5" rx="1.2" fill="#F4F7FB"/>
  <circle cx="61.5" cy="14.8" r="4.3" fill="#E2A21F"/>
</svg>
