<svg width="84" height="84" viewBox="0 0 84 84" fill="none" xmlns="http://www.w3.org/2000/svg">
  <rect width="84" height="84" rx="26" fill="#08111F"/>
  <circle cx="20" cy="18" r="8" fill="#E2A21F"/>
  <path d="M17 26H62C66.418 26 70 29.582 70 34V38H65V35C65 33.343 63.657 32 62 32H18C16.343 32 15 33.343 15 35V57C15 58.657 16.343 60 18 60H48V65H17C12.582 65 9 61.418 9 57V34C9 29.582 12.582 26 17 26Z" fill="#F4F7FB"/>
  <path d="M27 58C30.866 58 34 61.134 34 65C34 68.866 30.866 72 27 72C23.134 72 20 68.866 20 65C20 61.134 23.134 58 27 58Z" fill="#F4F7FB"/>
  <path d="M55 58C58.866 58 62 61.134 62 65C62 68.866 58.866 72 55 72C51.134 72 48 68.866 48 65C48 61.134 51.134 58 55 58Z" fill="#F4F7FB"/>
  <path d="M22 36H31L36 52H57L63 40H36V35H69L61 57H33L27 36H22Z" fill="#F4F7FB"/>
</svg>